<?xml version="1.0" encoding="utf-8"?>
<!-- Generator: Adobe Illustrator 25.2.1, SVG Export Plug-In . SVG Version: 6.00 Build 0)  -->
<svg version="1.1" id="Layer_1" xmlns="http://www.w3.org/2000/svg" xmlns:xlink="http://www.w3.org/1999/xlink" x="0px" y="0px"
	 viewBox="0 0 512 512" style="enable-background:new 0 0 512 512;" xml:space="preserve">
<style type="text/css">
	.st0{fill:#FFFFFF;}
</style>
<g>
	<g>
		<path class="st0" d="M437,75C388.7,26.6,324.4,0,256,0c-68,0-133,26.9-181,75C26.6,123.3,0,187.6,0,256
			c0,53.3,16.2,104.4,46.9,147.8c30,42.4,71.5,74.3,120,92.3c3.3,1.2,7,0.2,9.3-2.7c1.1-1.5,1.6-3.3,1.6-5.1v-146
			c0-4.5-3.6-8.1-8.1-8.1h-67.4v-59.3h67.4c4.5,0,8.1-3.6,8.1-8.1V256c0-70.3,66.7-132,142.8-132h35v59.3h-35
			c-22.8,0-43.6,6.6-58.4,18.5c-16.4,13.2-25.1,32-25.1,54.3v10.8c0,4.5,3.6,8.1,8.1,8.1h31.9c4.5,0,8.1-3.6,8.1-8.1
			c0-4.5-3.6-8.1-8.1-8.1h-23.8V256c0-41.8,36.3-56.6,67.4-56.6h43.1c4.5,0,8.1-3.6,8.1-8.1v-75.5c0-4.5-3.6-8.1-8.1-8.1h-43.1
			c-39.5,0-79.6,15.7-109.9,43.1c-31.7,28.6-49.1,65.9-49.1,105.1v2.7H94.3c-4.5,0-8.1,3.6-8.1,8.1v75.5c0,4.5,3.6,8.1,8.1,8.1h67.4
			v126.2C74.2,439.1,16.2,351.9,16.2,256C16.2,123.8,123.8,16.2,256,16.2c132.1,0,239.8,107.7,239.8,239.8
			c0,132.2-107.6,239.8-239.8,239.8c-0.9,0-1.8,0-2.7,0V350.3h110.5c4.5,0,8.1-3.6,8.1-8.1v-75.5c0-4.5-3.6-8.1-8.1-8.1h-47.3
			c-4.5,0-8.1,3.6-8.1,8.1c0,4.5,3.6,8.1,8.1,8.1h39.2v59.3H245.2c-4.5,0-8.1,3.6-8.1,8.1v161.4c0,4.3,3.4,7.9,7.7,8.1
			c4,0.2,7.6,0.3,11.1,0.3c68.4,0,132.7-26.6,181-75c48.1-48.1,75-113,75-181C512,187.6,485.4,123.3,437,75z"/>
	</g>
</g>
</svg>
