<?xml version="1.0" encoding="utf-8"?>
<!-- Generator: Adobe Illustrator 25.2.1, SVG Export Plug-In . SVG Version: 6.00 Build 0)  -->
<svg version="1.1" id="Layer_1" xmlns="http://www.w3.org/2000/svg" xmlns:xlink="http://www.w3.org/1999/xlink" x="0px" y="0px"
	 viewBox="0 0 512 512" style="enable-background:new 0 0 512 512;" xml:space="preserve">
<style type="text/css">
	.st0{fill:#FFFFFF;}
</style>
<g>
	<g>
		<path class="st0" d="M437,75C388.7,26.6,324.4,0,256,0S123.3,26.6,75,75C26.6,123.3,0,187.6,0,256s26.6,132.7,75,181
			c48.4,48.4,112.6,75,181,75s132.7-26.6,181-75s75-112.6,75-181S485.4,123.3,437,75z M256,495.8C123.8,495.8,16.2,388.2,16.2,256
			S123.8,16.2,256,16.2S495.8,123.8,495.8,256S388.2,495.8,256,495.8z"/>
	</g>
</g>
<g>
	<g>
		<path class="st0" d="M436.4,162.4c-2.4-2.1-6-2.5-8.9-1.1c-4.2,1.9-8.5,3.6-12.8,5.1c4.3-5.9,7.8-12.4,10.2-19.4
			c1-2.9,0.5-6.2-1.6-8.4c-2.6-2.8-6.7-3.4-10-1.6c-11.8,6.7-24.6,11.3-37.9,13.6c-15-13.7-34.2-21.2-54.6-21.2
			c-42.3,0-77.1,32.6-80.6,74.1c-8.7-1.4-25.8-6.2-29.9-7.6c-29.6-10.1-56.2-27.8-77.1-51.3c-1.2-1.4-2.9-2.4-4.7-2.8
			c-3.7-0.7-7.2,1.2-8.7,4.3c-5.2,10.4-7.8,21.5-7.8,33.2c0,16.1,5,31.3,14.1,43.7c-2.8-0.5-5.8,0.5-7.8,2.9c-1.1,1.4-1.7,3.2-1.8,5
			c0,0.8-0.1,1.6-0.1,2.5c0,21.8,10,41.6,26.1,54.6c-1.1,0.8-2.1,1.8-2.7,3.1c-1,1.9-1.1,4.1-0.4,6.2c7.1,22.6,24.6,39.7,46.3,46.8
			c-19.7,12-42.4,18.4-65.7,18.4c-2.1,0-4.2-0.1-6.3-0.2c-4-0.2-7.7,2.6-8.4,6.7c-0.6,3.3,1.2,6.7,4.1,8.4
			c29.7,17.5,63.7,26.8,98.4,26.8c41.4,0,80.8-12.9,113.6-36.7c4.1-2.9,4.5-8.8,1-12.4l0,0c-2.9-2.9-7.3-3.2-10.6-0.8
			c-29.3,21.2-65.2,33.7-104,33.7c-21.7,0-43.2-4-63.3-11.6c24.3-4.3,47.3-14.8,66.4-30.7c2.3-1.9,3.5-5,2.9-7.9
			c-0.7-3.8-4-6.4-7.7-6.5c-19.7-0.6-37.3-11.4-46.7-28.1c4.5-0.2,9-0.8,13.4-1.8c3.4-0.8,6.1-3.5,6.6-6.9c0.5-4.1-2.1-7.9-6.1-8.9
			c-21.1-5.2-36.6-22.4-40.1-43.3c6.2,1.5,12.6,2.1,19,1.9c4-0.1,7.3-3.1,7.8-7.2c0.4-3.2-1.3-6.3-4.1-8c-17.5-10.7-28-29.3-28-49.8
			c0-5,0.6-9.9,1.9-14.7c21.2,21,46.9,36.9,75.1,46.5c0.3,0.1,28.1,8.8,38.6,8.8c0.7,0,4,0.2,4,0.2c3.4,0.1,6.7-1.9,8-5.3
			c0.4-1,0.5-2,0.5-3.1c0-0.5,0-0.9,0-1.4c0-35.7,29.1-64.8,64.8-64.8c17.5,0,33.9,6.9,46.2,19.3c1.8,1.8,4.3,2.7,6.8,2.3
			c8.2-1.1,16.3-3,24-5.6c-4.1,4.5-9,8.4-14.5,11.5c-3.7,2.1-5.3,6.6-3.5,10.4l0.1,0.3c1.4,3.2,4.7,5,8.1,4.7
			c6.7-0.6,13.3-1.7,19.8-3.3c-5.7,5.9-12,11.3-18.8,16.1c-2.2,1.6-3.5,4.1-3.4,6.9l0,0.5c0,0.6,0,1.1,0,1.7v0.7
			c-0.2,45.3-17.5,86.7-45.7,118c-2.9,3.2-2.7,8.1,0.3,11.2c3.3,3.3,8.7,3.2,11.9-0.3c31.7-35.2,49.2-80.2,49.6-127.9
			c14.4-10.7,26.6-23.9,36.2-39.1C440,169.5,439.4,165.1,436.4,162.4z"/>
	</g>
</g>
</svg>
