<?xml version="1.0" encoding="utf-8"?>
<!-- Generator: Adobe Illustrator 25.2.1, SVG Export Plug-In . SVG Version: 6.00 Build 0)  -->
<svg version="1.1" id="Layer_1" xmlns="http://www.w3.org/2000/svg" xmlns:xlink="http://www.w3.org/1999/xlink" x="0px" y="0px"
	 viewBox="0 0 512 512" style="enable-background:new 0 0 512 512;" xml:space="preserve">
<style type="text/css">
	.st0{fill:#ffffff;}
</style>
<g>
	<g>
		<path class="st0" d="M437,75C388.7,26.6,324.4,0,256,0S123.3,26.6,75,75C26.6,123.3,0,187.6,0,256s26.6,132.7,75,181
			c48.4,48.4,112.6,75,181,75s132.7-26.6,181-75s75-112.6,75-181S485.4,123.3,437,75z M256,495.8C123.8,495.8,16.2,388.2,16.2,256
			S123.8,16.2,256,16.2S495.8,123.8,495.8,256S388.2,495.8,256,495.8z"/>
	</g>
</g>
<g>
	<g>
		<path class="st0" d="M347.8,97H164.2c-37,0-67.1,30.1-67.1,67.1v183.7c0,37,30.1,67.1,67.1,67.1h183.7c37,0,67.1-30.1,67.1-67.1
			V164.2C415,127.1,384.9,97,347.8,97z M398.8,347.8c0,28.1-22.9,51-51,51H164.2c-28.1,0-51-22.9-51-51V164.2c0-28.1,22.9-51,51-51
			h183.7c28.1,0,51,22.9,51,51L398.8,347.8L398.8,347.8z"/>
	</g>
</g>
<g>
	<g>
		<path class="st0" d="M339.4,251.2c-2.4-42.5-37-76.8-79.6-78.7c-49.1-2.2-89.5,38.2-87.3,87.3c1.9,42.6,36.2,77.2,78.7,79.5
			c18,1,34.8-3.7,48.8-12.5c4.4-2.7,5.1-8.8,1.4-12.5c0,0-0.1-0.1-0.1-0.1c-2.7-2.7-6.8-3.1-10-1.1c-10.5,6.5-22.9,10.2-36.2,10.1
			c-37.5-0.4-67.7-31.8-66.6-69.3c1.1-37.7,33.2-67.7,71.7-65.3c33.1,2.1,60.1,28.5,62.8,61.6c1.1,13.5-1.8,26.2-7.6,37.2
			c-1.7,3.1-1.2,7,1.4,9.5c0,0,0.1,0.1,0.1,0.1c3.8,3.8,10.2,2.9,12.7-1.8C336.7,282.3,340.3,267.2,339.4,251.2z"/>
	</g>
</g>
<g>
	<g>
		<circle class="st0" cx="342.2" cy="159" r="21.6"/>
	</g>
</g>
</svg>
